<svg xmlns="http://www.w3.org/2000/svg" width="64.26" height="64.26" viewBox="0 0 64.26 64.26"><g id="Layer_2" data-name="Layer 2"><g id="Layer_1-2" data-name="Layer 1"><g id="ns_instagram"><rect width="64.26" height="64.26" style="fill:#dd2a7b"/><path d="M32.05,14.11c-7.34,0-14.32-.65-17,6.19-1.1,2.82-.94,6.49-.94,11.74,0,4.61-.15,8.94.94,11.75,2.66,6.84,9.7,6.18,17,6.18,7,0,14.29.74,17-6.18C50.14,40.93,50,37.32,50,32c0-7,.38-11.53-3-14.92s-8.09-3-14.92-3Zm-1.41,3C46,17.07,47.92,15.36,46.84,39c-.38,8.37-6.75,7.45-14.59,7.45-14.29,0-14.7-.41-14.7-14.7,0-14.45,1.14-14.68,13.09-14.69Zm11,3a2.15,2.15,0,1,0,2.15,2.15A2.15,2.15,0,0,0,41.62,20.07Zm-9.57,2.51a9.21,9.21,0,1,0,9.21,9.21,9.21,9.21,0,0,0-9.21-9.21Zm0,3.23c7.9,0,7.91,12,0,12S24.14,25.81,32.05,25.81Z" style="fill:#fff"/></g></g></g></svg>